# Blender v2.90.1 OBJ File: 'robotmonster.blend'
# www.blender.org
mtllib head.mtl
o head_Cube.001
v 0.101853 1.631418 0.156301
v 0.127500 1.802392 0.156301
v 0.136366 1.631418 -0.057418
v 0.149121 1.757967 -0.056649
v 0.009582 1.812123 -0.166286
v 0.016993 1.573063 0.145545
v 0.020640 1.872702 0.156301
v 0.084756 1.781021 -0.121533
v 0.159906 1.714778 -0.041227
v 0.132795 1.631418 0.049442
v 0.164919 1.763121 -0.018459
v 0.148872 1.695533 0.156301
v 0.081108 1.594435 0.145545
v 0.135149 1.610046 -0.057418
v 0.111517 1.840885 0.133475
v 0.023574 1.903895 -0.074652
v 0.020659 1.577539 0.044065
v 0.016993 1.709188 0.149690
v 0.020640 1.739700 -0.165700
v 0.126420 1.695533 -0.121533
v 0.150434 1.720384 0.010526
v 0.104747 1.601166 0.048551
v 0.116222 1.877865 -0.009940
v 0.113805 1.722666 0.188289
v 0.134809 1.769228 -0.090345
v 0.139293 1.695533 -0.078789
v 0.158053 1.811836 0.025878
v 0.148872 1.695533 0.049442
v 0.153127 1.825439 0.095480
v 0.150022 1.806898 0.122923
v 0.111517 1.847032 0.108887
v 0.105972 1.856787 0.092175
v 0.016993 1.644186 0.165866
v 0.016993 1.801846 0.196798
v -0.059933 1.631418 0.156301
v -0.085579 1.802392 0.156301
v -0.094445 1.631418 -0.057418
v -0.107201 1.757967 -0.056649
v 0.010221 1.812123 -0.166286
v 0.017632 1.573063 0.145545
v 0.021280 1.872702 0.156301
v -0.042836 1.781021 -0.121533
v -0.117986 1.714778 -0.041227
v -0.090875 1.631418 0.049442
v -0.122999 1.763121 -0.018459
v -0.106951 1.695533 0.156301
v -0.046483 1.594435 0.145545
v -0.093229 1.610046 -0.057418
v -0.062270 1.839070 0.134684
v 0.024213 1.903895 -0.074652
v 0.021262 1.577539 0.044065
v 0.017632 1.709188 0.149690
v 0.021280 1.739700 -0.165700
v -0.084500 1.695533 -0.121533
v -0.108514 1.720384 0.010526
v -0.062827 1.601166 0.048551
v -0.060323 1.881958 -0.013172
v -0.079180 1.722666 0.188289
v -0.092888 1.769228 -0.090345
v -0.097372 1.695533 -0.078789
v -0.116133 1.811836 0.025878
v -0.106951 1.695533 0.049442
v -0.125053 1.811173 0.096874
v -0.120572 1.796597 0.130855
v -0.062270 1.845217 0.110096
v -0.061101 1.856369 0.087376
v 0.017632 1.644186 0.165866
v 0.017632 1.801846 0.196798
vt 0.473041 0.928409
vt 0.474526 0.929106
vt 0.473041 0.929147
vt 0.474739 0.929622
vt 0.473041 0.930026
vt 0.471343 0.929622
vt 0.471555 0.929106
vt 0.473041 0.931320
vt 0.471747 0.931320
vt 0.473450 0.930304
vt 0.474074 0.930625
vt 0.473344 0.930957
vt 0.474672 0.932739
vt 0.474739 0.933018
vt 0.473041 0.932613
vt 0.471343 0.933018
vt 0.470827 0.929834
vt 0.470868 0.931320
vt 0.437161 0.932426
vt 0.437636 0.934124
vt 0.437120 0.933912
vt 0.436805 0.954924
vt 0.437502 0.956410
vt 0.436805 0.956380
vt 0.475214 0.931320
vt 0.474334 0.931320
vt 0.475254 0.929834
vt 0.475952 0.931320
vt 0.475244 0.932426
vt 0.475952 0.932775
vt 0.475248 0.932592
vt 0.474620 0.932520
vt 0.473041 0.933493
vt 0.471555 0.933533
vt 0.510691 0.664992
vt 0.511592 0.665730
vt 0.510691 0.665730
vt 0.472277 0.934231
vt 0.471585 0.934231
vt 0.474070 0.930606
vt 0.475248 0.932592
vt 0.475244 0.932426
vt 0.474620 0.932520
vt 0.473942 0.934231
vt 0.474526 0.933533
vt 0.474496 0.934231
vt 0.509927 0.665730
vt 0.473041 0.928409
vt 0.474526 0.929106
vt 0.474496 0.928409
vt 0.473041 0.929147
vt 0.474739 0.929622
vt 0.471343 0.929622
vt 0.471555 0.929106
vt 0.473041 0.931320
vt 0.473041 0.930026
vt 0.473450 0.930304
vt 0.474074 0.930625
vt 0.474070 0.930606
vt 0.474672 0.932739
vt 0.471747 0.931320
vt 0.473041 0.932613
vt 0.470827 0.929834
vt 0.437161 0.932426
vt 0.437636 0.934124
vt 0.438040 0.932426
vt 0.436805 0.954924
vt 0.437502 0.956410
vt 0.437543 0.954924
vt 0.475214 0.931320
vt 0.475254 0.929834
vt 0.475952 0.931320
vt 0.475952 0.929864
vt 0.475254 0.932805
vt 0.475952 0.932775
vt 0.474334 0.931320
vt 0.471343 0.933018
vt 0.473041 0.933493
vt 0.474739 0.933018
vt 0.510691 0.664992
vt 0.510691 0.665730
vt 0.511592 0.665730
vt 0.471555 0.933533
vt 0.472277 0.934231
vt 0.473344 0.930957
vt 0.475254 0.932805
vt 0.473942 0.934231
vt 0.474526 0.933533
vt 0.509927 0.665730
vt 0.473041 0.934231
vt 0.474496 0.928409
vt 0.438040 0.932426
vt 0.437543 0.954924
vt 0.475952 0.929864
vt 0.470868 0.931320
vt 0.437120 0.933912
vt 0.436805 0.956380
vt 0.471585 0.934231
vt 0.474496 0.934231
vt 0.470130 0.931320
vt 0.470130 0.932775
vn 0.4528 0.2207 -0.8638
vn 0.9574 0.0130 -0.2883
vn 0.9767 -0.0556 -0.2071
vn 0.9695 -0.2431 0.0324
vn 0.9614 -0.1924 0.1968
vn 0.8078 0.1616 0.5669
vn 0.7853 -0.5759 0.2274
vn 0.7227 -0.6745 0.1508
vn 0.8380 -0.5190 0.1682
vn 0.3161 -0.9482 -0.0304
vn 0.8698 0.3809 -0.3136
vn 0.5813 0.5262 -0.6206
vn 0.4192 0.8377 0.3499
vn 0.5554 0.8227 -0.1215
vn 0.1293 -0.3431 0.9304
vn 0.7257 0.1451 0.6725
vn -0.2806 -0.4350 0.8556
vn 0.0912 -0.2736 0.9575
vn 0.9197 -0.0056 -0.3925
vn 0.7927 0.4676 -0.3910
vn 0.4754 -0.8611 0.1803
vn 0.9966 -0.0811 -0.0117
vn -0.5022 0.7862 0.3601
vn 0.3622 0.4484 0.8172
vn -0.3876 0.2226 0.8945
vn -0.6070 -0.0991 -0.7885
vn -0.5542 0.2701 -0.7873
vn -0.9767 -0.0556 -0.2071
vn -0.9948 -0.0702 -0.0743
vn -0.9161 0.0891 -0.3910
vn -0.9829 -0.1760 0.0541
vn -0.9700 -0.2432 0.0000
vn -0.9978 -0.0568 0.0333
vn -0.7144 -0.6685 0.2069
vn -0.2715 -0.9622 -0.0210
vn -0.5251 0.5788 -0.6239
vn -0.7021 0.5539 -0.4475
vn -0.4128 0.8836 0.2209
vn -0.7251 0.6687 0.1646
vn -0.5158 -0.3783 0.7687
vn -0.8090 0.1618 0.5651
vn 0.2806 -0.4350 0.8556
vn -0.0459 -0.3264 0.9441
vn -0.8673 0.0394 -0.4962
vn -0.7927 0.4676 -0.3910
vn -0.4754 -0.8611 0.1803
vn -0.9495 -0.1273 0.2869
vn 0.6782 0.7130 0.1782
vn -0.4212 0.4291 0.7990
vn 0.3876 0.2226 0.8945
vn 0.0000 -0.7071 -0.7071
vn -0.9997 0.0230 -0.0093
vn 0.2706 -0.9627 -0.0030
vn 0.5327 0.0745 -0.8430
vn 0.5542 0.2701 -0.7873
vn 0.9483 -0.1385 -0.2856
vn 0.9948 -0.0702 -0.0743
vn 0.9161 0.0891 -0.3910
vn 0.9999 -0.0103 0.0000
vn 0.9947 -0.0618 0.0825
vn 0.9956 -0.0585 0.0731
vn 0.9700 -0.2432 0.0000
vn 0.9978 -0.0568 0.0333
vn 0.7144 -0.6685 0.2069
vn 0.2705 -0.9627 -0.0009
vn 0.5288 0.5615 -0.6364
vn 0.5851 0.5266 -0.6168
vn 0.1239 0.9693 0.2125
vn 0.2768 0.9518 0.1321
vn 0.3719 0.9006 0.2251
vn 0.7743 0.5999 0.2015
vn 0.4719 -0.3461 0.8109
vn -0.2848 0.3987 0.8717
vn 0.0459 -0.3264 0.9441
vn 0.8673 0.0394 -0.4962
vn 0.9115 0.2923 -0.2895
vn 0.9816 -0.1765 -0.0733
vn 0.9495 -0.1273 0.2869
vn -0.5592 0.7326 0.3880
vn -0.5128 0.6538 0.5563
vn -0.4999 0.8403 0.2101
vn 0.3943 0.3928 0.8308
vn -0.4528 0.2207 -0.8638
vn -0.9574 0.0130 -0.2883
vn -0.9483 -0.1385 -0.2856
vn -0.9695 -0.2431 0.0324
vn -0.9614 -0.1924 0.1968
vn -0.9868 -0.1032 -0.1249
vn -0.9910 -0.1336 0.0000
vn -0.5968 0.1194 0.7935
vn -0.7853 -0.5759 0.2274
vn -0.7227 -0.6745 0.1508
vn -0.9193 -0.3719 0.1291
vn -0.3158 -0.9473 -0.0531
vn -0.8192 0.4657 -0.3346
vn -0.5806 0.5469 -0.6032
vn -0.1593 0.9786 0.1302
vn -0.3684 0.9016 0.2266
vn -0.4685 0.8024 0.3698
vn -0.5824 0.8103 -0.0656
vn -0.3378 -0.3740 0.8637
vn 0.2353 0.3781 0.8953
vn -0.0912 -0.2736 0.9575
vn -0.9197 -0.0056 -0.3925
vn -0.9115 0.2923 -0.2895
vn -0.9816 -0.1765 -0.0733
vn -0.9966 -0.0811 -0.0117
vn 0.6433 0.5701 0.5110
vn 0.5195 0.6796 0.5179
vn 0.5137 0.8042 0.2990
vn -0.3939 0.4713 0.7891
vn 0.0000 -0.6000 -0.8000
vn -0.9473 -0.1423 0.2872
vn -0.9998 -0.0172 -0.0132
vn -0.9993 0.0102 -0.0356
vn -0.9996 -0.0066 -0.0265
vn -0.9986 0.0242 -0.0476
vn -0.9997 0.0227 -0.0096
vn -0.2724 -0.9622 -0.0025
vn 0.0000 -0.9523 -0.3051
usemtl Material.001
s off
f 19/1/1 8/2/1 20/3/1
f 20/3/2 25/4/2 26/5/2
f 20/3/3 3/6/3 14/7/3
f 3/6/4 28/8/4 10/9/4
f 9/10/5 11/11/5 21/12/5
f 30/13/6 2/14/6 12/15/6
f 10/9/7 12/15/7 1/16/7
f 14/17/8 10/9/8 22/18/8
f 22/19/9 1/20/9 13/21/9
f 17/22/10 13/23/10 6/24/10
f 25/4/11 23/25/11 27/26/11
f 8/27/12 16/28/12 23/25/12
f 32/29/13 7/30/13 31/31/13
f 27/26/14 32/29/14 29/32/14
f 1/16/15 24/33/15 13/34/15
f 2/14/16 24/33/16 12/15/16
f 24/35/17 34/36/17 18/37/17
f 13/34/18 33/38/18 6/39/18
f 4/40/19 26/5/19 25/4/19
f 4/40/20 27/26/20 11/11/20
f 21/12/21 26/5/21 9/10/21
f 21/12/22 27/26/22 28/8/22
f 65/41/23 66/42/23 63/43/23
f 34/44/24 15/45/24 7/46/24
f 33/47/25 24/35/25 18/37/25
f 53/48/26 42/49/26 39/50/26
f 54/51/27 59/52/27 42/49/27
f 37/53/28 54/51/28 48/54/28
f 37/53/29 62/55/29 60/56/29
f 43/57/30 45/58/30 38/59/30
f 64/60/31 63/43/31 62/55/31
f 44/61/32 46/62/32 62/55/32
f 48/63/33 44/61/33 37/53/33
f 56/64/34 35/65/34 44/66/34
f 51/67/35 47/68/35 56/69/35
f 59/52/36 57/70/36 42/71/36
f 42/71/37 50/72/37 39/73/37
f 65/41/38 49/74/38 41/75/38
f 61/76/39 66/42/39 57/70/39
f 35/77/40 58/78/40 46/62/40
f 58/78/41 36/79/41 46/62/41
f 58/80/42 52/81/42 68/82/42
f 47/83/43 67/84/43 58/78/43
f 38/59/44 60/56/44 43/57/44
f 61/76/45 38/59/45 45/58/45
f 60/56/46 55/85/46 43/57/46
f 55/85/47 61/76/47 45/58/47
f 31/31/48 15/86/48 30/13/48
f 68/87/49 49/88/49 58/78/49
f 67/89/50 52/81/50 58/80/50
f 54/51/51 53/48/51 20/3/51
f 16/28/52 19/1/52 18/90/52
f 14/7/53 22/18/53 17/22/53
f 19/1/54 5/91/54 8/2/54
f 20/3/55 8/2/55 25/4/55
f 20/3/56 26/5/56 3/6/56
f 3/6/57 26/5/57 28/8/57
f 9/10/58 4/40/58 11/11/58
f 12/15/59 28/8/59 30/13/59
f 28/8/60 27/26/60 29/32/60
f 30/13/61 28/8/61 29/32/61
f 10/9/62 28/8/62 12/15/62
f 14/17/63 3/6/63 10/9/63
f 22/19/64 10/92/64 1/20/64
f 17/22/65 22/93/65 13/23/65
f 25/4/66 8/27/66 23/25/66
f 8/27/67 5/94/67 16/28/67
f 32/29/68 23/25/68 16/28/68
f 16/28/69 7/30/69 32/29/69
f 7/30/70 15/86/70 31/31/70
f 27/26/71 23/25/71 32/29/71
f 1/16/72 12/15/72 24/33/72
f 2/14/73 15/45/73 24/33/73
f 13/34/74 24/33/74 33/38/74
f 4/40/75 9/10/75 26/5/75
f 4/40/76 25/4/76 27/26/76
f 21/12/77 28/8/77 26/5/77
f 21/12/78 11/11/78 27/26/78
f 63/43/79 64/60/79 49/74/79
f 64/60/80 36/79/80 49/74/80
f 63/43/81 49/74/81 65/41/81
f 34/44/82 24/33/82 15/45/82
f 53/48/83 54/51/83 42/49/83
f 54/51/84 60/56/84 59/52/84
f 37/53/85 60/56/85 54/51/85
f 37/53/86 44/61/86 62/55/86
f 43/57/87 55/85/87 45/58/87
f 61/76/88 62/55/88 63/43/88
f 62/55/89 46/62/89 64/60/89
f 46/62/90 36/79/90 64/60/90
f 44/61/91 35/77/91 46/62/91
f 48/63/92 56/95/92 44/61/92
f 56/64/93 47/96/93 35/65/93
f 51/67/94 40/97/94 47/68/94
f 59/52/95 61/76/95 57/70/95
f 42/71/96 57/70/96 50/72/96
f 50/72/97 57/70/97 41/75/97
f 57/70/98 66/42/98 41/75/98
f 66/42/99 65/41/99 41/75/99
f 61/76/100 63/43/100 66/42/100
f 35/77/101 47/83/101 58/78/101
f 58/78/102 49/88/102 36/79/102
f 47/83/103 40/98/103 67/84/103
f 38/59/104 59/52/104 60/56/104
f 61/76/105 59/52/105 38/59/105
f 60/56/106 62/55/106 55/85/106
f 55/85/107 62/55/107 61/76/107
f 2/14/108 30/13/108 15/86/108
f 30/13/109 29/32/109 31/31/109
f 29/32/110 32/29/110 31/31/110
f 68/87/111 41/99/111 49/88/111
f 20/3/112 14/7/112 48/54/112
f 48/54/112 54/51/112 20/3/112
f 16/28/113 5/91/113 19/1/113
f 19/1/114 17/100/114 18/90/114
f 17/100/115 6/101/115 33/38/115
f 18/90/116 17/100/116 33/38/116
f 18/90/117 34/44/117 7/46/117
f 7/46/118 16/28/118 18/90/118
f 56/95/119 48/54/119 17/22/119
f 48/54/120 14/7/120 17/22/120
f 14/7/8 10/9/8 22/18/8
l 53 19
